# xmcd CD database file
#
# Track frame offsets:
#	150
#	21273
#	44249
#	79234
#	100305
#	136326
#	166590
#	216400
#	246451
#	274768
#	299086
#
# Disc length: 4224 seconds
#
# Revision: 1
# Processed by: cddbd v1.4PL0 Copyright (c) Steve Scherf et al.
# Submitted via: CDex 1.50
#
DISCID=ae107e0b
DTITLE=Morblus - Push! - Live at Fiamene
DYEAR=2000
DGENRE=Blues
TTITLE0=Let The Good Times Roll
TTITLE1=Don't Try To Change Me
TTITLE2=The Thrill Is Gone
TTITLE3=Never Make A Move Too Soon
TTITLE4=Tin Pan Alley
TTITLE5=Everyday I Have The Blues
TTITLE6=I'll Play The Blues For You
TTITLE7=Sweet Sixteen
TTITLE8=Paying The Cost To Be The Boss
TTITLE9=Georgia On My Mind
TTITLE10=Forevermore
EXTD=YEAR: 2000
EXTT0=
EXTT1=
EXTT2=
EXTT3=
EXTT4=
EXTT5=
EXTT6=
EXTT7=
EXTT8=
EXTT9=
EXTT10=
PLAYORDER=
